<?xml version="1.0" encoding="iso-8859-1"?>
<!-- Generator: Adobe Illustrator 19.0.0, SVG Export Plug-In . SVG Version: 6.00 Build 0)  -->
<svg version="1.1" id="Capa_1" xmlns="http://www.w3.org/2000/svg" xmlns:xlink="http://www.w3.org/1999/xlink" x="0px" y="0px"
	 viewBox="0 0 512 512" style="enable-background:new 0 0 512 512;" xml:space="preserve">
<path style="fill:#AA6100;" d="M504.408,255.991c0,129.332-98.847,235.59-225.119,247.324c-7.664,0.717-15.429,1.08-23.285,1.08
	c-136.855,0-248.404-111.55-248.404-248.404c0-137.188,111.217-248.404,248.404-248.404c7.836,0,15.581,0.364,23.225,1.07
	c6.129,0.565,12.188,1.353,18.176,2.363c10.976,1.848,18.711,11.925,17.55,22.993c-0.343,3.292-0.464,6.654-0.333,10.067
	c1.353,36.534,31.091,66.201,67.625,67.473c4.685,0.162,9.26-0.131,13.703-0.848c4.201-0.677,7.664,3.14,6.614,7.26
	c-1.565,6.18-2.322,12.683-2.131,19.398c1.08,38.18,33.131,68.756,71.33,68.129c2.312-0.04,4.615-0.192,6.877-0.444
	c11.522-1.323,22.104,6.654,23.619,18.146C503.681,233.928,504.408,244.874,504.408,255.991z"/>
<path style="fill:#EE8700;" d="M504.408,255.991c0,129.332-98.847,235.59-225.119,247.324
	c-126.06-11.734-225.24-118.275-225.24-247.324c0-129.352,98.877-235.621,225.18-247.334c6.129,0.565,12.188,1.353,18.176,2.363
	c10.976,1.848,18.711,11.925,17.55,22.993c-0.343,3.292-0.464,6.654-0.333,10.067c1.353,36.534,31.091,66.201,67.625,67.473
	c4.685,0.162,9.26-0.131,13.703-0.848c4.201-0.677,7.664,3.14,6.614,7.26c-1.565,6.18-2.322,12.683-2.131,19.398
	c1.08,38.18,33.131,68.756,71.33,68.129c2.312-0.04,4.615-0.192,6.877-0.444c11.522-1.323,22.104,6.654,23.619,18.146
	C503.681,233.928,504.408,244.874,504.408,255.991z"/>
<g>
	<path style="fill:#781900;" d="M158.056,159.053c0,20.63-16.732,37.362-37.362,37.362c-3.544,0-6.967-0.495-10.209-1.404
		c-15.672-4.453-27.153-18.863-27.153-35.958c0-20.63,16.732-37.362,37.362-37.362c17.095,0,31.505,11.481,35.958,27.153
		C157.561,152.086,158.056,155.509,158.056,159.053z"/>
	<path style="fill:#781900;" d="M217.976,452.635c-5.039,0.596-9.966,0.162-14.571-1.141c-14.086-3.999-25.083-16.136-26.91-31.576
		c-2.423-20.498,12.228-39.068,32.717-41.482c18.499-2.191,35.423,9.522,40.32,26.89c0.535,1.878,0.929,3.827,1.161,5.826
		C253.116,431.652,238.464,450.221,217.976,452.635z"/>
	<path style="fill:#781900;" d="M126.834,332.936c-9.906,9.138-23.437,11.895-35.524,8.482c-6.412-1.818-12.42-5.362-17.267-10.623
		c-13.985-15.167-13.036-38.806,2.141-52.791c15.167-13.985,38.806-13.036,52.791,2.141c4.11,4.463,6.937,9.653,8.482,15.126
		C141.172,308.378,137.547,323.061,126.834,332.936z"/>
	<path style="fill:#781900;" d="M455.01,354.141c-9.906,9.138-23.437,11.895-35.524,8.482c-6.412-1.818-12.42-5.362-17.267-10.623
		c-13.985-15.167-13.036-38.806,2.141-52.791c15.167-13.985,38.806-13.036,52.791,2.141c4.11,4.463,6.937,9.653,8.482,15.126
		C469.349,329.584,465.724,344.266,455.01,354.141z"/>
	<path style="fill:#781900;" d="M319.7,302.643c-9.906,9.138-23.437,11.895-35.524,8.482c-6.412-1.818-12.42-5.362-17.267-10.623
		c-13.985-15.167-13.036-38.806,2.141-52.791c15.167-13.985,38.806-13.036,52.791,2.141c4.11,4.463,6.937,9.653,8.482,15.126
		C334.039,278.085,330.414,292.767,319.7,302.643z"/>
	<path style="fill:#781900;" d="M269.212,130.981c-9.906,9.138-23.437,11.895-35.524,8.482c-6.412-1.818-12.42-5.362-17.267-10.623
		c-13.985-15.167-13.036-38.806,2.141-52.791c15.167-13.985,38.806-13.036,52.791,2.141c4.11,4.463,6.937,9.653,8.482,15.126
		C283.551,106.424,279.925,121.106,269.212,130.981z"/>
</g>
<g>
	<path style="fill:#AB2300;" d="M158.056,159.053c0,20.63-16.732,37.362-37.362,37.362c-3.544,0-6.967-0.495-10.209-1.404
		c-0.909-3.241-1.404-6.665-1.404-10.209c0-20.63,16.732-37.362,37.362-37.362c3.544,0,6.967,0.495,10.209,1.404
		C157.561,152.086,158.056,155.509,158.056,159.053z"/>
	<path style="fill:#AB2300;" d="M217.976,452.635c-5.039,0.596-9.966,0.162-14.571-1.141c-0.535-1.878-0.929-3.827-1.161-5.826
		c-2.423-20.498,12.228-39.068,32.717-41.482c5.039-0.596,9.966-0.162,14.571,1.141c0.535,1.878,0.929,3.827,1.161,5.826
		C253.116,431.652,238.464,450.221,217.976,452.635z"/>
	<path style="fill:#AB2300;" d="M126.834,332.936c-9.906,9.138-23.437,11.895-35.524,8.482
		c-3.716-13.107-0.091-27.789,10.623-37.665c9.906-9.138,23.437-11.895,35.524-8.482
		C141.172,308.378,137.547,323.061,126.834,332.936z"/>
	<path style="fill:#AB2300;" d="M455.01,354.141c-9.906,9.138-23.437,11.895-35.524,8.482c-3.716-13.107-0.091-27.789,10.623-37.665
		c9.906-9.138,23.437-11.895,35.524-8.482C469.349,329.584,465.724,344.266,455.01,354.141z"/>
	<path style="fill:#AB2300;" d="M319.7,302.643c-9.906,9.138-23.437,11.895-35.524,8.482c-3.716-13.107-0.091-27.789,10.623-37.665
		c9.906-9.138,23.437-11.895,35.524-8.482C334.039,278.085,330.414,292.767,319.7,302.643z"/>
	<path style="fill:#AB2300;" d="M269.212,130.981c-9.906,9.138-23.437,11.895-35.524,8.482
		c-3.716-13.107-0.091-27.789,10.623-37.665c9.906-9.138,23.437-11.895,35.524-8.482
		C283.551,106.424,279.925,121.106,269.212,130.981z"/>
</g>
<path d="M509.77,222.207c-2.025-15.361-16.242-26.495-31.995-24.686c-4.16,0.475-8.377,0.537-12.542,0.177
	c-4.165-0.354-7.838,2.722-8.199,6.889c-0.361,4.167,2.722,7.839,6.89,8.2c5.124,0.447,10.369,0.376,15.573-0.218
	c7.672-0.869,14.319,4.507,15.257,11.618c16.896,128.129-69.431,246.363-196.323,268.911c-4.118,0.733-6.863,4.664-6.131,8.782
	c0.727,4.09,4.625,6.862,8.782,6.131C435.216,484.174,527.737,358.506,509.77,222.207z"/>
<path d="M269.28,496.463C152.2,502.835,48.54,425.369,21.586,311.261c-0.96-4.07-5.04-6.599-9.11-5.63
	c-4.07,0.961-6.591,5.041-5.629,9.11c27.871,118,137.337,203.698,263.257,196.845c4.177-0.228,7.378-3.798,7.151-7.973
	C277.025,499.436,273.453,496.269,269.28,496.463z"/>
<path d="M216.484,18.384c26.15-4.315,53.547-4.276,79.668,0.106c6.469,1.086,11.346,6.812,11.346,13.32
	c0,1.44-0.502,4.272-0.502,9.607c0,46.528,41.026,83.044,87.65,77.123c-7.388,33.553,8.305,67.528,37.494,84.269
	c1.189,0.682,2.483,1.005,3.761,1.005c7.749,0,10.475-10.301,3.775-14.144c-23.923-13.721-36.864-41.993-29.769-69.841
	c2.385-9.403-5.577-18.129-15.158-16.604c-37.563,6.034-71.193-22.491-72.561-59.418c-0.245-6.623,0.457-8.551,0.457-11.996
	c0-14.04-10.087-25.925-23.985-28.258c-27.759-4.66-56.854-4.698-84.642-0.113c-4.126,0.682-6.92,4.579-6.239,8.706
	C208.461,16.273,212.357,19.063,216.484,18.384z"/>
<path d="M16.609,282.352C3.824,165.717,77.883,57.304,187.887,24.928c4.013-1.181,6.308-5.391,5.128-9.404
	c-1.181-4.014-5.394-6.309-9.404-5.128C66.941,44.734-12.213,158.448,1.553,284.001c0.425,3.878,3.706,6.749,7.518,6.749
	C13.604,290.751,17.099,286.82,16.609,282.352z"/>
<path d="M165.629,159.053c0-36.354-41.024-57.42-70.534-36.936c-3.436,2.385-4.289,7.104-1.903,10.539
	c2.386,3.437,7.106,4.29,10.54,1.903c8.392-5.824,17.063-5.31,16.962-5.295c16.426,0,29.788,13.362,29.788,29.788
	s-13.362,29.788-29.788,29.788c-18.123,0-32.247-16.193-29.438-34.379c0.638-4.134-2.196-8.001-6.33-8.64
	c-4.138-0.637-8.001,2.197-8.64,6.33c-4.224,27.366,17.033,51.835,44.408,51.835C145.471,203.988,165.629,183.83,165.629,159.053z"
	/>
<path d="M250.651,424.493c4.179,0.158,7.694-3.105,7.851-7.286c0.929-25.499-19.481-46.611-44.865-46.611
	c-26.87,0-47.835,23.387-44.669,50.207c4.298,36.399,47.662,52.029,74.365,28.421c3.134-2.771,3.428-7.556,0.657-10.69
	s-7.555-3.428-10.69-0.657c-17.815,15.754-46.456,5.147-49.29-18.849c-1.947-16.455,9.845-31.156,26.092-33.075
	c18.326-2.168,33.969,12.628,33.264,30.69C243.21,420.821,246.472,424.337,250.651,424.493z"/>
<path d="M126.275,288.908c2.336,3.472,7.04,4.397,10.51,2.063c3.472-2.334,4.396-7.038,2.063-10.51
	c-8.395-12.493-22.447-19.925-37.35-19.925c-39.177,0-59.365,46.836-33.022,75.399c24.548,26.617,68.997,14.641,76.88-20.631
	c0.912-4.081-1.657-8.131-5.74-9.043c-4.081-0.91-8.131,1.657-9.043,5.74c-5.216,23.338-34.672,31.331-50.964,13.664
	c-5.088-5.516-7.89-12.686-7.89-20.184C71.72,276.08,109.908,264.553,126.275,288.908z"/>
<path d="M454.452,310.113c2.335,3.472,7.041,4.397,10.51,2.063c3.472-2.334,4.396-7.038,2.063-10.51
	c-15.356-22.851-47.503-26.745-67.803-8.022c-18.025,16.624-19.576,45.053-2.568,63.496c24.548,26.617,68.997,14.641,76.88-20.631
	c0.912-4.081-1.657-8.131-5.74-9.043c-4.081-0.91-8.131,1.656-9.043,5.74c-5.234,23.413-34.719,31.281-50.964,13.664
	c-5.088-5.516-7.89-12.686-7.89-20.184C399.897,297.548,438.019,285.662,454.452,310.113z"/>
<path d="M294.394,320.092c38.996,0,59.449-46.713,33.015-75.378c-16.798-18.212-45.281-19.364-63.497-2.569
	c-18.213,16.799-19.366,45.282-2.569,63.497C270.189,315.233,282.272,320.092,294.394,320.092z M274.181,253.279
	c12.07-11.133,30.955-10.375,42.092,1.703c11.136,12.074,10.371,30.957-1.703,42.092c-12.074,11.137-30.957,10.371-42.092-1.703
	C261.342,283.298,262.106,264.415,274.181,253.279z"/>
<path d="M243.905,148.43c38.996,0,59.449-46.713,33.015-75.378c-16.798-18.213-45.281-19.365-63.497-2.569
	C183.431,98.144,203.119,148.43,243.905,148.43z M223.692,81.617c12.07-11.133,30.955-10.375,42.092,1.703
	c11.136,12.074,10.371,30.957-1.703,42.092c-12.074,11.137-30.957,10.372-42.092-1.703
	C210.853,111.636,211.617,92.753,223.692,81.617z"/>
<g>
</g>
<g>
</g>
<g>
</g>
<g>
</g>
<g>
</g>
<g>
</g>
<g>
</g>
<g>
</g>
<g>
</g>
<g>
</g>
<g>
</g>
<g>
</g>
<g>
</g>
<g>
</g>
<g>
</g>
</svg>
