<svg xmlns="http://www.w3.org/2000/svg" viewBox="0 0 26 26"><defs><style>.cls-1,.cls-3,.cls-4{fill:none;}.cls-2{fill:#086725;}.cls-3{stroke:#086725;}.cls-3,.cls-4{stroke-linecap:round;stroke-linejoin:round;stroke-width:0.25px;}.cls-4{stroke:#333;}</style></defs><title>git</title><g id="Warstwa_2" data-name="Warstwa 2"><g id="Layer_1" data-name="Layer 1"><rect class="cls-1" width="26" height="26"/><rect class="cls-1" width="26" height="26"/><path class="cls-2" d="M13,.19A12.81,12.81,0,1,0,25.81,13,12.81,12.81,0,0,0,13,.19Zm0,23.63A10.81,10.81,0,1,1,23.81,13,10.82,10.82,0,0,1,13,23.81Z"/><path class="cls-3" d="M20.16,14.48a14.78,14.78,0,0,1,2.05-.21,7.92,7.92,0,0,1,1.64.24"/><path class="cls-4" d="M19.84,14.9s1.47-.13,2.08-.12a8,8,0,0,1,1.75.28"/><path class="cls-4" d="M6.63,14.41s-1.83-.17-2.39-.17a10.44,10.44,0,0,0-2.17.32"/><path class="cls-3" d="M7.05,15a19.31,19.31,0,0,0-2.79-.07,5.64,5.64,0,0,0-2,.67"/><path class="cls-2" d="M6.31,13c0-3.07,3.22-5.89,7.19-5.89S20.68,9.93,20.68,13s-2.31,5.24-7.19,5.24S6.31,16.08,6.31,13Z"/><path class="cls-2" d="M16.21,7.7a4.18,4.18,0,0,1,3.21-1.56c.83.83.26,3.21,0,3.92Z"/><path class="cls-2" d="M10.86,7.7A4.18,4.18,0,0,0,7.64,6.14c-.83.83-.26,3.21,0,3.92Z"/><path class="cls-2" d="M10.38,21H8.49a2.09,2.09,0,0,1-1.91-1,5.53,5.53,0,0,0-1.74-2.23c-.17-.12-.07-.29.26-.26a1.93,1.93,0,0,1,1.44.74c.48.63,1,1.34,1.89,1.34s1.85,0,2.34-.62Z"/><path class="cls-2" d="M14.29,17.69H12.71c-1.5,0-2.71,2.13-2.71,3.63V24a1.18,1.18,0,0,0,1,1.33V22.11a.5.5,0,0,1,1,0v3.37h1v-4a.5.5,0,0,1,1,0v4h1V22.11a.5.5,0,0,1,1,0v3.27A1.18,1.18,0,0,0,17,24V21.31C17,19.82,15.79,17.69,14.29,17.69Z"/></g></g></svg>