<svg xmlns="http://www.w3.org/2000/svg" viewBox="0 0 26 26"><defs><style>.cls-1{fill:none;}.cls-2{fill:#046722;}</style></defs><title>Linkedin</title><g id="Warstwa_2" data-name="Warstwa 2"><g id="Layer_1" data-name="Layer 1"><rect class="cls-1" width="26" height="26"/><path class="cls-2" d="M14,11.72v0l0,0Z"/><path class="cls-2" d="M21.13,0H4.88A4.87,4.87,0,0,0,0,4.88V21.13A4.87,4.87,0,0,0,4.88,26H21.13A4.87,4.87,0,0,0,26,21.13V4.88A4.87,4.87,0,0,0,21.13,0ZM8,22.07H4L4,10H8ZM5.92,8.39h0a2,2,0,1,1,.05-4.08,2,2,0,1,1,0,4.08ZM22,22.07H18V15.5c0-1.59-.42-2.67-1.84-2.67a2.07,2.07,0,0,0-2,1.44,2.69,2.69,0,0,0-.13,1v6.85H9.95L9.92,10H14l0,1.71a3.79,3.79,0,0,1,3.48-2C20.1,9.73,22,11.42,22,15Z"/></g></g></svg>